<?xml version="1.0" encoding="utf-8"?>
<!-- Generator: Adobe Illustrator 23.0.4, SVG Export Plug-In . SVG Version: 6.00 Build 0)  -->
<svg version="1.1" id="Layer_1" xmlns="http://www.w3.org/2000/svg" xmlns:xlink="http://www.w3.org/1999/xlink" x="0px" y="0px"
	 viewBox="0 0 1184.86 731.02" style="enable-background:new 0 0 1184.86 731.02;" xml:space="preserve">
<style type="text/css">
	.st0{fill:#80D2E5;}
</style>
<polygon class="st0" points="13.63,383.5 334.15,383.5 173.72,415.54 315.4,415.54 36.2,517.72 300.47,442.79 334.15,459.18 
	174.06,613.08 409.16,468.77 313.66,569.43 435.55,483.66 306.02,663.54 490.07,490.47 433.82,605.01 508.82,489.21 476.88,663.54 
	566.82,466 565.17,491.79 557.44,613.08 585.57,464.48 606.06,636.29 617.52,463.22 673.77,615.86 639.74,442.79 773.09,655.21 
	683.15,457.67 797.4,573.47 726.21,444.05 889.42,592.64 776.91,456.41 881.78,508.13 802.95,448.34 1059.93,512.16 797.4,411.5 
	935.96,422.35 767.53,374.67 1110.63,383.5 713.01,344.65 945.33,331.02 703.64,321.69 1078.68,256.09 767.53,293.94 919.29,241.21 
	761.63,271.23 967.9,162.75 767.53,234.4 861.29,162.75 731.77,216.99 842.54,98.16 669.95,224.81 748.78,98.16 639.74,223.55 
	701.9,61.33 589.39,216.99 634.19,49.22 572.37,216.99 562.3,26.01 548.06,235.66 495.63,58.8 525.49,253.57 412.98,40.89 
	484.17,282.08 369.92,88.57 437.29,247.26 281.71,79.24 396.31,247.26 287.27,153.92 354.99,241.21 176.84,153.92 313.66,254.83 
	202.89,231.62 302.55,271.23 28.56,254.83 358.81,329.76 167.47,320.17 332.41,344.65 "/>
</svg>
