<?xml version="1.0" encoding="utf-8"?>
<!-- Generator: Adobe Illustrator 23.0.3, SVG Export Plug-In . SVG Version: 6.00 Build 0)  -->
<svg version="1.1" id="Layer_1" xmlns="http://www.w3.org/2000/svg" xmlns:xlink="http://www.w3.org/1999/xlink" x="0px" y="0px"
	 viewBox="0 0 1126 664" style="enable-background:new 0 0 1126 664;" xml:space="preserve">
<style type="text/css">
	.st0{fill:#084870;}
</style>
<polygon class="st0" points="6,369.23 326.52,369.23 166.09,401.27 307.77,401.27 28.57,503.44 292.84,428.51 326.52,444.91 
	166.43,598.81 401.53,454.5 306.03,555.16 427.92,469.38 298.39,649.27 482.44,476.2 426.19,590.73 501.2,474.93 469.25,649.27 
	559.19,451.72 557.54,477.52 549.81,598.81 577.94,450.21 598.43,622.02 609.89,448.95 666.14,601.58 632.11,428.51 765.46,640.94 
	675.52,443.4 789.77,559.2 718.58,429.78 881.79,578.37 769.28,442.14 874.15,493.86 795.33,434.06 1052.3,497.89 789.77,397.23 
	928.33,408.08 759.91,360.4 1103,369.23 705.39,330.37 937.7,316.75 696.01,307.42 1071.05,241.82 759.91,279.66 911.66,226.94 
	754,256.96 960.28,148.47 759.91,220.12 853.67,148.47 724.14,202.72 834.91,83.89 662.32,210.54 741.15,83.89 632.11,209.28 
	694.27,47.05 581.76,202.72 626.56,34.95 564.74,202.72 554.67,11.73 540.44,221.39 488,44.53 517.86,239.3 405.35,26.62 
	476.54,267.81 362.29,74.3 429.66,232.99 274.09,64.97 388.68,232.99 279.64,139.64 347.36,226.94 169.21,139.64 306.03,240.56 
	195.26,217.35 294.92,256.96 20.93,240.56 351.18,315.49 159.84,305.9 324.79,330.37 "/>
</svg>
