<?xml version="1.0" encoding="utf-8"?>
<!-- Generator: Adobe Illustrator 23.0.3, SVG Export Plug-In . SVG Version: 6.00 Build 0)  -->
<svg version="1.1" id="Layer_1" xmlns="http://www.w3.org/2000/svg" xmlns:xlink="http://www.w3.org/1999/xlink" x="0px" y="0px"
	 viewBox="0 0 1019 410" style="enable-background:new 0 0 1019 410;" xml:space="preserve">
<style type="text/css">
	.st0{fill:#E541DD;}
	.st1{fill:#5AE25E;}
	.st2{fill:#F7F731;}
	.st3{fill:#4242E2;}
	.st4{fill:#750000;}
	.st5{fill:#B00000;}
	.st6{fill:#999999;}
	.st7{fill:#C6C4C5;}
	.st8{fill:#DBDBDB;}
	.st9{fill:#EDEDED;}
	.st10{fill:#FFFFFF;}
</style>
<g>
	<polygon class="st0" points="670.03,59.71 647.41,62.23 635.28,26.73 657.91,24.21 	"/>
	<polygon class="st1" points="774.29,33.79 751.36,35.09 745.05,-0.89 767.99,-2.2 	"/>
	<polygon class="st1" points="294.54,45.18 271.52,44.49 274.84,8.38 297.86,9.07 	"/>
	<polygon class="st2" points="818.75,44.12 795.81,45.43 789.51,9.44 812.44,8.13 	"/>
	<polygon class="st2" points="421.91,78.87 400.73,73.69 425.71,40.45 446.89,45.63 	"/>
	<polygon class="st3" points="338.17,57.39 315.15,56.7 318.47,20.59 341.49,21.28 	"/>
	<polygon class="st4" points="149.64,69.76 42.67,69.76 42.67,390.55 970,390.55 970,69.76 	"/>
	<ellipse class="st4" cx="506.13" cy="385.86" rx="48.98" ry="17.14"/>
	<ellipse class="st5" cx="506.13" cy="377.4" rx="40.75" ry="17.14"/>
	<rect x="56.66" y="73.98" class="st6" width="885.76" height="303.42"/>
	<polygon class="st3" points="35.93,209.47 37.14,196.34 100.44,198.23 99.23,211.37 	"/>
	<path class="st7" d="M499.54,375.52c0,0-188.35-39.45-442.88,1.88V73.98l442.88,1.41V375.52z"/>
	<polygon class="st0" points="31.82,177.53 33.03,164.4 96.33,166.29 95.12,179.43 	"/>
	<polygon class="st0" points="57.34,292.6 58.55,279.47 121.85,281.37 120.64,294.5 	"/>
	<path class="st8" d="M499.54,375.52c0,0-213.46-51.9-429.89-11.51c-0.42-0.23,7.64-305.3,7.21-305.06
		c25.04-6.81,337.8,4.23,422.67,16.44C499.12,75.16,499.54,375.52,499.54,375.52z"/>
	<polygon class="st3" points="51.58,95.81 52.78,82.67 116.08,84.57 114.87,97.7 	"/>
	<polygon class="st1" points="68.04,258.32 69.25,245.18 132.55,247.08 131.34,260.21 	"/>
	<path class="st9" d="M89.92,31.71v315.16c0,0,358.86-21.61,409.62,28.65V75.39C337.62,29.36,89.92,31.71,89.92,31.71z"/>
	<polygon class="st2" points="91.31,207.5 89.01,194.41 152.09,190.81 154.38,203.9 	"/>
	<polygon class="st1" points="83.68,151.23 84.89,138.1 148.19,139.99 146.98,153.13 	"/>
	<polygon class="st2" points="75.67,321.16 73.37,308.07 136.45,304.48 138.74,317.56 	"/>
	<path class="st10" d="M499.54,377.4c-28.1-17.61-196.29-69.51-392.59-49.32c0,0,19.26-305.53,18.82-305.3
		C218.1,11.75,465.2,47.92,499.54,77.27C499.1,77.04,499.1,377.17,499.54,377.4z"/>
	<path class="st7" d="M499.54,375.52c0,0,188.35-39.45,442.88,1.88V73.98l-442.88,1.41V375.52z"/>
	<polygon class="st0" points="209.75,42.83 186.73,42.14 190.05,6.03 213.07,6.72 	"/>
	<polygon class="st1" points="897,150.76 898.21,137.63 961.51,139.52 960.3,152.66 	"/>
	<polygon class="st2" points="892.28,224.4 889.98,211.32 953.06,207.72 955.35,220.81 	"/>
	<path class="st8" d="M499.54,375.52c0,0,213.46-51.9,429.89-11.51c0.42-0.23-7.64-305.3-7.21-305.06
		c-25.04-6.81-337.8,4.23-422.67,16.44C499.97,75.16,499.54,375.52,499.54,375.52z"/>
	<polygon class="st2" points="892.28,303.78 889.98,290.7 953.06,287.1 955.35,300.19 	"/>
	<polygon class="st0" points="877.24,124.46 878.45,111.32 941.75,113.22 940.54,126.35 	"/>
	<path class="st9" d="M909.17,31.71v315.16c0,0-358.86-21.61-409.62,28.65V75.39C661.47,29.36,909.17,31.71,909.17,31.71z"/>
	<polygon class="st3" points="850.08,72.79 851.28,59.66 914.58,61.55 913.37,74.69 	"/>
	<polygon class="st0" points="900.29,225.44 901.5,212.31 964.8,214.2 963.59,227.34 	"/>
	<polygon class="st1" points="880.53,199.14 881.74,186 945.04,187.9 943.83,201.03 	"/>
	<polygon class="st2" points="853.37,147.47 854.58,134.34 917.88,136.23 916.67,149.37 	"/>
	<path class="st10" d="M499.54,377.4c28.1-17.61,196.29-69.51,392.59-49.32c0,0-19.26-305.53-18.82-305.3
		c-92.33-11.04-339.43,25.13-373.77,54.48C499.99,77.04,499.99,377.17,499.54,377.4z"/>
</g>
</svg>
