<?xml version="1.0" encoding="utf-8"?>
<!-- Generator: Adobe Illustrator 23.0.4, SVG Export Plug-In . SVG Version: 6.00 Build 0)  -->
<svg version="1.1" id="Layer_1" xmlns="http://www.w3.org/2000/svg" xmlns:xlink="http://www.w3.org/1999/xlink" x="0px" y="0px"
	 viewBox="0 0 1022 410" style="enable-background:new 0 0 1022 410;" xml:space="preserve">
<style type="text/css">
	.st0{fill:#C68D66;}
	.st1{fill:#C69471;}
	.st2{fill:#E3A87D;}
	.st3{fill:#DDC6A6;}
	.st4{fill:#917957;}
</style>
<path class="st0" d="M839.3,172L988,292.6c0,0-70.9-0.9-90.1,0c4.8,21.9,1.1,48.6,11.8,101.9c-32.3-53.3-177-115-177-115l5-107.5
	H839.3z"/>
<polygon class="st1" points="841,255 834,246 794,236 733.7,240 733,280 "/>
<path class="st0" d="M166.4,172L17.7,292.6c0,0,70.9-0.9,90.1,0c-4.8,21.9-1.1,48.6-11.8,101.9c32.3-53.3,177-115,177-115L268,172
	H166.4z"/>
<polygon class="st1" points="164,253 272,241 273,279 "/>
<path class="st2" d="M841,254.5c-97-31.7-573.3-16.1-677,0V95c137.2-38.9,561.3-37.5,677,0V254.5z"/>
<g>
	<path class="st3" d="M118.1,114.1c1.6-1.9,27.6-10.2,34.3-9.9s29.3-2,41.2,3.4c12,5.4,13.9,1.8,19.6,13.6c1.5-5.6-1.7-9.5-7.7-12.2
		c1.2-1.2,10.3,3,17,0.2s21.3-7.4,28.1-4.7c-1.2-2.8-29.5-13.9-35.1-18.6c10.7,4.2,25.4,11.1,31.4,11.9c5.6,0.7,13.9,1.8,26.1-4.3
		c11-5.7,15.4-6.1,15.4-6.1s-14.7-3.4-17.9-4.9c4.8,0.7,16.7,3,24.1-1.5c7.5-4.5,19.6-17.7,24.2-24.9c4.7-7.2,11.5-28.7,11.5-28.7
		s-19.1,22.8-46.1,23.2c-1.9,2.8-14.1,10.5-16.1,10.9c2-2,12.1-11.6,9.7-15.6c-0.7,7.1-28.4,12.2-35.9,8
		c-0.4,2.8-18.4,13.3-20.5,9.8c4.7-2.4,19.2-14.1,18.8-16.1c-3.1,2.4-12.1,11.6-28.8,7.9c-10-2.3-38.1-3.5-42.6,10.8
		c-1.3-5.1-2.1-11.5-8.9-11.8c4,3.1,5.2,5.1,3.7,9.9c-3,9.5-25.8,23.3-31.7,29.3C127.2,98.9,118.1,114.1,118.1,114.1z"/>
	<g>
		<path class="st4" d="M106,129c2.8-4.3,6-8.3,9.3-12.3c3.3-4,6.7-7.8,10.2-11.6c3.6-3.7,7.2-7.3,11.2-10.7
			c3.9-3.3,8.2-6.4,12.9-8.8c9.3-4.6,19.1-7.9,29.2-10.5c5-1.3,10.1-2.3,15.2-3.1c5.1-0.8,10.3-1.3,15.5-1.4
			c5.2-0.2,10.5,0.3,15.5,0.8c5.1,0.5,10.2,0.8,15.3,1.1c10.2,0.5,20.4,0.5,30.4-1.3c5-0.9,9.8-2.4,14.2-4.8
			c4.6-2.3,9.1-4.7,13.6-7.1c4.5-2.4,8.9-5,13.1-8c2-1.5,4.1-3,5.9-4.8c1.8-1.8,3.6-3.7,4.8-5.9c-2.3,4.6-6.3,8.2-10.3,11.4
			c-4.1,3.1-8.4,5.9-12.8,8.6c-4.4,2.6-8.9,5.1-13.4,7.6c-4.6,2.6-9.6,4.3-14.7,5.3c-5.1,1.1-10.3,1.6-15.5,1.8
			c-5.2,0.2-10.3,0.2-15.5,0c-5.2-0.2-10.3-0.6-15.4-1c-5.2-0.5-10.1-0.9-15.2-0.7c-5.1,0.1-10.1,0.6-15.1,1.3c-5,0.7-10,1.7-15,2.9
			c-9.9,2.4-19.6,5.6-28.8,9.9c-4.6,2.1-8.7,5-12.7,8.2c-4,3.1-7.7,6.6-11.4,10.2c-3.7,3.6-7.2,7.3-10.6,11.1
			c-1.7,1.9-3.4,3.8-5.1,5.8C109.2,125,107.5,126.9,106,129z"/>
	</g>
</g>
</svg>
