<?xml version="1.0" encoding="utf-8"?>
<!-- Generator: Adobe Illustrator 23.0.4, SVG Export Plug-In . SVG Version: 6.00 Build 0)  -->
<svg version="1.1" id="Layer_2" xmlns="http://www.w3.org/2000/svg" xmlns:xlink="http://www.w3.org/1999/xlink" x="0px" y="0px"
	 viewBox="0 0 1026 547" style="enable-background:new 0 0 1026 547;" xml:space="preserve">
<style type="text/css">
	.st0{fill:#BA2F2F;}
	.st1{fill:#D19033;}
	.st2{fill:#C48531;}
	.st3{fill:#8C6131;}
	.st4{fill:#CE3434;}
	.st5{fill:#E5B34E;}
</style>
<path class="st0" d="M376.1,181.9c0,0,113.4-0.6,136.9,17.6s102.8,76.5,140,59c37.3-17.5,166.6-3,182.9-32.9
	c16.3-30,129.3-18.3,130.5-9c1.2,9.3,0,264.8,0,264.8s-120,21-143.3,25.5c-23.3,4.5-192.2,1.7-198-25.5
	c-5.8-27.1-94.3-67.3-124.6-70.5c-30.3-3.2-98.1-43.6-118.9-61.9c-20.8-18.3-113.6-20.9-113.6-20.9L376.1,181.9z"/>
<path class="st1" d="M494.6,192.5c0,0-34.7,18.8-30.4,36.1c4.3,17.3,18.7,59.5-0.4,71.4c-19.1,11.9-38.6,32.5-45.1,43.3
	c-6.5,10.8-10.2,25.1-10.2,25.1s29.6,17.7,37.6,21.8c8,4,12.6-43.6,19.1-52.3c6.5-8.7,42.3-24.9,47.7-37.9c5.4-13,3.3-30.3,0-48.7
	c-3.3-18.4,21.1-36.3,21-36.3C534,215,510.1,192,494.6,192.5z"/>
<path class="st1" d="M588.1,247.6c0,0-23.8,28.8-25.7,49.1s7.2,41.4-6.7,58.8c-14,17.3-38.5,59.1-38.5,59.1s33.2,12.3,37.7,14.3
	c4.5,2.1,19.1-28.4,28.3-38.4c9.2-10,28.4-19.6,20.7-35c-7.7-15.4-10.3-36.6-8.7-49.2s19.3-26,19.3-26l8.8-20
	C623.2,260.2,594.1,251.8,588.1,247.6z"/>
<path class="st1" d="M685.6,251.2c0,0-13.3,14.2-2.2,36.3c11.1,22.2,14.8,96.4,2.2,95.4s-24.2,16.4-28.2,32.8
	c-13.5,40-10.9,79.4-10.9,79.4s56.6,13,71.6,10.9s-1.5-67.2,0-81.6s35.2-69.8,36.7-80.5c1.5-10.7,1-29.9-11.1-46.3
	s-4.8-50.1-4.8-50.1L685.6,251.2z"/>
<path class="st1" d="M821.5,236.4c-0.7,0.2-28,29.2-10.2,73.8c17.9,44.6,35.7,102.3,19.9,121.5S812.7,499,812.7,499l1.4,8.8
	l65.9-11.2c0,0,0.1-63.5,9-77.9c8.9-14.4,14.4-48.1,0-69.7s-22-46.9-17.2-75.5s29.7-64.4,22.7-67c-29,1.8-36.4,2.3-48.5,9.8
	C832.4,221.5,836.3,232.1,821.5,236.4z"/>
<path class="st1" d="M1000.7,416.2h-51.1c-1.3,0-2.3-1-2.3-2.3l0,0c0-1.3,1-2.3,2.3-2.3h51.1c1.3,0,2.3,1,2.3,2.3l0,0
	C1003,415.2,1002,416.2,1000.7,416.2z"/>
<path class="st1" d="M992.7,405.1l-36.1,5.5c-3.8,0.6-8.4,0.1-10.3-1l0,0c-1.9-1.1-0.4-2.5,3.4-3.1l36.1-5.5c3.8-0.6,8.4-0.1,10.3,1
	l0,0C998,403.2,996.5,404.6,992.7,405.1z"/>
<path class="st1" d="M1000.7,429.1h-51.1c-1.3,0-2.3-1-2.3-2.3l0,0c0-1.3,1-2.3,2.3-2.3h51.1c1.3,0,2.3,1,2.3,2.3l0,0
	C1003,428.1,1002,429.1,1000.7,429.1z"/>
<path class="st1" d="M993,424.5l-39.2-2.9c-4.1-0.3-6.6-1.5-5.6-2.8l0,0c1-1.2,5.2-2,9.2-1.7l39.2,2.9c4.1,0.3,6.6,1.5,5.6,2.8l0,0
	C1001.2,424,997.1,424.8,993,424.5z"/>
<path class="st1" d="M1001.6,465.5h-51.1c-1.3,0-2.3-1-2.3-2.3l0,0c0-1.3,1-2.3,2.3-2.3h51.1c1.3,0,2.3,1,2.3,2.3l0,0
	C1003.9,464.5,1002.9,465.5,1001.6,465.5z"/>
<path class="st1" d="M994.8,460.8l-39.2-2.9c-4.1-0.3-6.6-1.5-5.6-2.8l0,0c1-1.2,5.2-2,9.2-1.7l39.2,2.9c4.1,0.3,6.6,1.5,5.6,2.8
	l0,0C1003,460.3,998.9,461.1,994.8,460.8z"/>
<path class="st1" d="M1001.6,479.4h-51.1c-1.3,0-2.3-1-2.3-2.3l0,0c0-1.3,1-2.3,2.3-2.3h51.1c1.3,0,2.3,1,2.3,2.3l0,0
	C1003.9,478.4,1002.9,479.4,1001.6,479.4z"/>
<path class="st1" d="M993.9,473.7l-39.2-2.9c-4.1-0.3-6.6-1.5-5.6-2.8v0c1-1.2,5.2-2,9.2-1.7l39.2,2.9c4.1,0.3,6.6,1.5,5.6,2.8l0,0
	C1002.1,473.3,998,474,993.9,473.7z"/>
<path class="st1" d="M1002.5,439.3h-51.1c-1.3,0-2.3-1-2.3-2.3l0,0c0-1.3,1-2.3,2.3-2.3h51.1c1.3,0,2.3,1,2.3,2.3l0,0
	C1004.8,438.3,1003.8,439.3,1002.5,439.3z"/>
<path class="st1" d="M998.4,435.4l-39.7-2.2c-4.1-0.2-6.9-1.4-6.1-2.7l0,0c0.8-1.2,4.7-2.1,8.9-1.8l39.7,2.2
	c4.1,0.2,6.9,1.4,6.1,2.7l0,0C1006.6,434.8,1002.6,435.6,998.4,435.4z"/>
<path class="st1" d="M1002.5,453.2h-51.1c-1.3,0-2.3-1-2.3-2.3l0,0c0-1.3,1-2.3,2.3-2.3h51.1c1.3,0,2.3,1,2.3,2.3l0,0
	C1004.8,452.2,1003.8,453.2,1002.5,453.2z"/>
<path class="st1" d="M994.8,447.6l-39.2-2.9c-4.1-0.3-6.6-1.5-5.6-2.8l0,0c1-1.2,5.2-2,9.2-1.7l39.2,2.9c4.1,0.3,6.6,1.5,5.6,2.8
	l0,0C1003,447.1,998.9,447.9,994.8,447.6z"/>
<path class="st2" d="M451.3,185.5c-2.3-0.6-27.5,26.9-23.2,42.2c4.3,15.3-6.1,50.7-12.2,57.4c-6.1,6.7-28.1,22-27.5,38.5
	s-6.9,25.4-6.9,25.4l-31-12l17.8-45.5c0,0,17.7-42.4,29.9-61.3c12.2-18.9,15.9-31.4,14.6-37.7c-1.2-6.3,2.4-9.7,2.4-9.7L451.3,185.5
	z"/>
<path class="st3" d="M334.4,170.7l-251.1-6.5c0,0,32.4,28.9,53.7,31.4s182.8,10.3,190.1-7.3S334.4,170.7,334.4,170.7z"/>
<path class="st1" d="M76.3,162c0,0-28.3-5-33.4,20.8s-22.8,37.4-14.4,59s7.4,34.1,4.2,37.4s19.2,22.4,59.1,30.7
	c39.9,8.3,137.9,29.9,176.1,18.3c38.2-11.6,126.3-24.9,132.1-49s12.5-27.4-8.3-39.9c-20.8-12.5-20.8-28.2-12.5-32.4
	c8.3-4.2,15.8-33.2-11.6-38.2s-68.1,14.1-87.2,17.4c-19.1,3.3-130.4,1.7-142.9-3.3S76.3,162,76.3,162z"/>
<path class="st4" d="M89.2,167c0,0-18.2,21.4-15.9,36.8s7.1,33.2,7.9,46.4c0.8,13.2-8.1,54.6-8.1,54.6s41.7,9.8,45.4,10.6
	c3.7,0.7,17.1-85.6,13.5-93.4c-3.6-7.7-4.3-21.6,0.6-30.5s4.9-8.8,4.9-8.8S98.3,164.7,89.2,167"/>
<path class="st4" d="M191.5,187.1c0,0,14.8,22.1,4.2,41.2c-10.6,19-9.5,39.1-4.2,45.2c5.3,6.1,4.1,55.1-3.9,54
	c-8-1.1,33.8,5.4,52.5,4c18.7-1.4,23.3-51.4,11.6-62s-16.9-30.1-13.7-40.2c3.2-10,6.3-42.2,6.3-42.2S196.3,183.5,191.5,187.1z"/>
<path class="st4" d="M298.4,181.2c0,0-6,37.6,6.7,47.2s12.7,30.6,10,35.9c-2.6,5.3-5.8,22.7-5.3,31.2c0.5,8.5,3.2,21.3,3.2,21.3
	s23.4-5.2,38.1-9.9c14.7-4.7,14.2-51.5,5.2-57.9s-32.2-27-32.8-38.1c-0.5-11.1,12.6-40.5,12.6-40.5L298.4,181.2z"/>
<path class="st1" d="M1004.4,345.9h-51.1c-1.3,0-2.3-1-2.3-2.3l0,0c0-1.3,1-2.3,2.3-2.3h51.1c1.3,0,2.3,1,2.3,2.3l0,0
	C1006.7,344.9,1005.6,345.9,1004.4,345.9z"/>
<path class="st1" d="M996.3,334.8l-36.1,5.5c-3.8,0.6-8.4,0.1-10.3-1l0,0c-1.9-1.1-0.4-2.5,3.4-3.1l36.1-5.5c3.8-0.6,8.4-0.1,10.3,1
	l0,0C1001.5,332.9,1000,334.3,996.3,334.8z"/>
<path class="st1" d="M1000.3,358.8h-51.1c-1.3,0-2.3-1-2.3-2.3v0c0-1.3,1-2.3,2.3-2.3h51.1c1.3,0,2.3,1,2.3,2.3v0
	C1002.6,357.8,1001.6,358.8,1000.3,358.8z"/>
<path class="st1" d="M992.6,354.2l-39.2-2.9c-4.1-0.3-6.6-1.5-5.6-2.8v0c1-1.2,5.2-2,9.2-1.7l39.2,2.9c4.1,0.3,6.6,1.5,5.6,2.8l0,0
	C1000.8,353.7,996.7,354.5,992.6,354.2z"/>
<path class="st1" d="M1001.2,395.2h-51.1c-1.3,0-2.3-1-2.3-2.3l0,0c0-1.3,1-2.3,2.3-2.3h51.1c1.3,0,2.3,1,2.3,2.3l0,0
	C1003.5,394.2,1002.5,395.2,1001.2,395.2z"/>
<path class="st1" d="M994.4,390.5l-39.2-2.9c-4.1-0.3-6.6-1.5-5.6-2.8l0,0c1-1.2,5.2-2,9.2-1.7L998,386c4.1,0.3,6.6,1.5,5.6,2.8l0,0
	C1002.6,390,998.5,390.8,994.4,390.5z"/>
<path class="st1" d="M1001.2,409.1h-51.1c-1.3,0-2.3-1-2.3-2.3l0,0c0-1.3,1-2.3,2.3-2.3h51.1c1.3,0,2.3,1,2.3,2.3l0,0
	C1003.5,408.1,1002.5,409.1,1001.2,409.1z"/>
<path class="st1" d="M993.5,403.4l-39.2-2.9c-4.1-0.3-6.6-1.5-5.6-2.8l0,0c1-1.2,5.2-2,9.2-1.7l39.2,2.9c4.1,0.3,6.6,1.5,5.6,2.8
	l0,0C1001.7,403,997.6,403.7,993.5,403.4z"/>
<path class="st1" d="M1002.1,369h-51.1c-1.3,0-2.3-1-2.3-2.3l0,0c0-1.3,1-2.3,2.3-2.3h51.1c1.3,0,2.3,1,2.3,2.3l0,0
	C1004.4,368,1003.4,369,1002.1,369z"/>
<path class="st1" d="M998,365.1l-39.7-2.2c-4.1-0.2-6.9-1.4-6.1-2.7h0c0.8-1.2,4.7-2.1,8.9-1.8l39.7,2.2c4.1,0.2,6.9,1.4,6.1,2.7
	l0,0C1006.2,364.5,1002.2,365.4,998,365.1z"/>
<path class="st1" d="M1002.1,383h-51.1c-1.3,0-2.3-1-2.3-2.3l0,0c0-1.3,1-2.3,2.3-2.3h51.1c1.3,0,2.3,1,2.3,2.3l0,0
	C1004.4,381.9,1003.4,383,1002.1,383z"/>
<path class="st1" d="M994.4,377.3l-39.2-2.9c-4.1-0.3-6.6-1.5-5.6-2.8v0c1-1.2,5.2-2,9.2-1.7l39.2,2.9c4.1,0.3,6.6,1.5,5.6,2.8l0,0
	C1002.6,376.8,998.5,377.6,994.4,377.3z"/>
<path class="st1" d="M1004.4,295.7h-51.1c-1.3,0-2.3-1-2.3-2.3l0,0c0-1.3,1-2.3,2.3-2.3h51.1c1.3,0,2.3,1,2.3,2.3l0,0
	C1006.7,294.6,1005.6,295.7,1004.4,295.7z"/>
<path class="st1" d="M996.3,284.6l-36.1,5.5c-3.8,0.6-8.4,0.1-10.3-1l0,0c-1.9-1.1-0.4-2.5,3.4-3.1l36.1-5.5c3.8-0.6,8.4-0.1,10.3,1
	l0,0C1001.6,282.6,1000.1,284,996.3,284.6z"/>
<path class="st1" d="M1004.4,308.5h-51.1c-1.3,0-2.3-1-2.3-2.3l0,0c0-1.3,1-2.3,2.3-2.3h51.1c1.3,0,2.3,1,2.3,2.3l0,0
	C1006.7,307.5,1005.6,308.5,1004.4,308.5z"/>
<path class="st1" d="M996.6,303.9l-39.2-2.9c-4.1-0.3-6.6-1.5-5.6-2.8l0,0c1-1.2,5.2-2,9.2-1.7l39.2,2.9c4.1,0.3,6.6,1.5,5.6,2.8
	l0,0C1004.9,303.4,1000.7,304.2,996.6,303.9z"/>
<path class="st1" d="M1005.3,358.8h-51.1c-1.3,0-2.3-1-2.3-2.3v0c0-1.3,1-2.3,2.3-2.3h51.1c1.3,0,2.3,1,2.3,2.3v0
	C1007.6,357.8,1006.5,358.8,1005.3,358.8z"/>
<path class="st1" d="M1006.2,318.8h-51.1c-1.3,0-2.3-1-2.3-2.3l0,0c0-1.3,1-2.3,2.3-2.3h51.1c1.3,0,2.3,1,2.3,2.3l0,0
	C1008.5,317.7,1007.4,318.8,1006.2,318.8z"/>
<path class="st1" d="M1002.1,314.8l-39.7-2.2c-4.1-0.2-6.9-1.4-6.1-2.7v0c0.8-1.2,4.7-2.1,8.9-1.8l39.7,2.2c4.1,0.2,6.9,1.4,6.1,2.7
	l0,0C1010.2,314.2,1006.2,315.1,1002.1,314.8z"/>
<path class="st1" d="M1006.2,332.7h-51.1c-1.3,0-2.3-1-2.3-2.3l0,0c0-1.3,1-2.3,2.3-2.3h51.1c1.3,0,2.3,1,2.3,2.3l0,0
	C1008.5,331.6,1007.4,332.7,1006.2,332.7z"/>
<path class="st1" d="M998.4,327l-39.2-2.9c-4.1-0.3-6.6-1.5-5.6-2.8l0,0c1-1.2,5.2-2,9.2-1.7l39.2,2.9c4.1,0.3,6.6,1.5,5.6,2.8l0,0
	C1006.6,326.5,1002.5,327.3,998.4,327z"/>
<path class="st1" d="M1004,225.4h-51.1c-1.3,0-2.3-1-2.3-2.3v0c0-1.3,1-2.3,2.3-2.3h51.1c1.3,0,2.3,1,2.3,2.3v0
	C1006.3,224.3,1005.2,225.4,1004,225.4z"/>
<path class="st1" d="M995.9,214.3l-36.1,5.5c-3.8,0.6-8.4,0.1-10.3-1l0,0c-1.9-1.1-0.4-2.5,3.4-3.1l36.1-5.5c3.8-0.6,8.4-0.1,10.3,1
	l0,0C1001.2,212.3,999.7,213.7,995.9,214.3z"/>
<path class="st1" d="M1004,238.2h-51.1c-1.3,0-2.3-1-2.3-2.3l0,0c0-1.3,1-2.3,2.3-2.3h51.1c1.3,0,2.3,1,2.3,2.3l0,0
	C1006.3,237.2,1005.2,238.2,1004,238.2z"/>
<path class="st1" d="M996.2,233.6l-39.2-2.9c-4.1-0.3-6.6-1.5-5.6-2.8l0,0c1-1.2,5.2-2,9.2-1.7l39.2,2.9c4.1,0.3,6.6,1.5,5.6,2.8
	l0,0C1004.4,233.2,1000.3,233.9,996.2,233.6z"/>
<path class="st1" d="M1004.9,274.6h-51.1c-1.3,0-2.3-1-2.3-2.3v0c0-1.3,1-2.3,2.3-2.3h51.1c1.3,0,2.3,1,2.3,2.3v0
	C1007.2,273.6,1006.1,274.6,1004.9,274.6z"/>
<path class="st1" d="M998,269.9l-39.2-2.9c-4.1-0.3-6.6-1.5-5.6-2.8l0,0c1-1.2,5.2-2,9.2-1.7l39.2,2.9c4.1,0.3,6.6,1.5,5.6,2.8l0,0
	C1006.2,269.4,1002.1,270.2,998,269.9z"/>
<path class="st1" d="M1004.9,288.5h-51.1c-1.3,0-2.3-1-2.3-2.3l0,0c0-1.3,1-2.3,2.3-2.3h51.1c1.3,0,2.3,1,2.3,2.3l0,0
	C1007.2,287.5,1006.1,288.5,1004.9,288.5z"/>
<path class="st1" d="M997.1,282.9l-39.2-2.9c-4.1-0.3-6.6-1.5-5.6-2.8l0,0c1-1.2,5.2-2,9.2-1.7l39.2,2.9c4.1,0.3,6.6,1.5,5.6,2.8
	l0,0C1005.3,282.4,1001.2,283.2,997.1,282.9z"/>
<path class="st1" d="M1005.8,248.5h-51.1c-1.3,0-2.3-1-2.3-2.3v0c0-1.3,1-2.3,2.3-2.3h51.1c1.3,0,2.3,1,2.3,2.3v0
	C1008.1,247.4,1007,248.5,1005.8,248.5z"/>
<path class="st1" d="M1001.7,244.6l-39.7-2.2c-4.1-0.2-6.9-1.4-6.1-2.7v0c0.8-1.2,4.7-2.1,8.9-1.8l39.7,2.2c4.1,0.2,6.9,1.4,6.1,2.7
	l0,0C1009.8,243.9,1005.8,244.8,1001.7,244.6z"/>
<path class="st1" d="M1005.8,262.4h-51.1c-1.3,0-2.3-1-2.3-2.3v0c0-1.3,1-2.3,2.3-2.3h51.1c1.3,0,2.3,1,2.3,2.3v0
	C1008.1,261.3,1007,262.4,1005.8,262.4z"/>
<path class="st1" d="M998,256.7l-39.2-2.9c-4.1-0.3-6.6-1.5-5.6-2.8l0,0c1-1.2,5.2-2,9.2-1.7l39.2,2.9c4.1,0.3,6.6,1.5,5.6,2.8l0,0
	C1006.2,256.3,1002.1,257,998,256.7z"/>
<g>
	<polygon class="st5" points="99,140.5 26.2,162.9 14.3,124.1 38.5,139.8 50.7,113 76.7,130 87.1,101.8 	"/>
	<ellipse transform="matrix(0.956 -0.2932 0.2932 0.956 -34.2461 8.7748)" class="st5" cx="12.1" cy="118.6" rx="2" ry="1.8"/>
	<ellipse transform="matrix(0.956 -0.2932 0.2932 0.956 -29.341 19.0227)" class="st5" cx="48.8" cy="107.4" rx="2" ry="1.8"/>
	<ellipse transform="matrix(0.956 -0.2932 0.2932 0.956 -24.4359 29.2706)" class="st5" cx="85.4" cy="96.1" rx="2" ry="1.8"/>
	<ellipse transform="matrix(0.956 -0.2932 0.2932 0.956 -41.7347 25.0236)" class="st3" cx="62.6" cy="151.7" rx="38.1" ry="3.2"/>
</g>
</svg>
