<?xml version="1.0" encoding="utf-8"?>
<!-- Generator: Adobe Illustrator 23.0.3, SVG Export Plug-In . SVG Version: 6.00 Build 0)  -->
<svg version="1.1" id="Layer_1" xmlns="http://www.w3.org/2000/svg" xmlns:xlink="http://www.w3.org/1999/xlink" x="0px" y="0px"
	 viewBox="0 0 1019 410" style="enable-background:new 0 0 1019 410;" xml:space="preserve">
<style type="text/css">
	.st0{fill:#9AB6EB;}
	.st1{fill:#8CAAE9;}
	.st2{fill:#ACC0E5;}
	.st3{fill:#BDD5F9;}
</style>
<g>
	<path class="st0" d="M463.21,299.24l5.86,93.5c0,0-307.63,36.91-431.3-36.6c-12.32-25.69-9.95-158.76-9.95-158.76
		C55.24,162.27,183.4,136.6,183.4,136.6l21.26,37.73l96.87-22.45l4.49,101.77l135.27-2.8l-20.66,52.32L463.21,299.24z"/>
	<path class="st1" d="M520.02,170.31L436.15,8c0,0-184.36,53.76-223.33,115.42c-0.33-0.29,32.44,25.06,32.44,25.06l77.66-62.51
		l6.32,50.63l32.32,43.33l121.53-41l7.81,54.32L520.02,170.31z"/>
	<path class="st2" d="M511,167.1L430.53,15.91c0,0-169.8,48.27-205.79,103.31c-0.31-0.26,23.61,18.35,23.61,18.35l77.06-57.11
		l6.48,50.31l29.67,38.58L486.25,134l6.67,46.2L511,167.1z"/>
	<path class="st2" d="M444.45,300.36l5.22,83.33c0,0-280.94,33.32-393.75-32.04c-11.21-22.88-8.87-141.5-8.87-141.5
		c25.07-31.33,142.13-54.38,142.13-54.38l19.36,33.6l88.48-20.14l3.96,90.71l123.51-2.68l-18.94,46.67L444.45,300.36z"/>
	
		<ellipse transform="matrix(0.9127 -0.4087 0.4087 0.9127 -106.3589 169.7667)" class="st3" cx="344.11" cy="333.79" rx="56.27" ry="33.32"/>
</g>
<polygon class="st1" points="482.18,243.53 538.2,321.18 571.47,278.08 "/>
<polygon class="st2" points="491.09,251.33 538.25,316.7 566.27,280.42 "/>
<polygon class="st1" points="530.39,376.08 578.43,376.42 557.03,336.09 "/>
<polygon class="st2" points="535.48,374.06 575.93,374.35 557.91,340.4 "/>
<polygon class="st2" points="571.42,194.4 544.44,219.49 560.56,229.6 "/>
</svg>
