<?xml version="1.0" encoding="utf-8"?>
<!-- Generator: Adobe Illustrator 23.0.3, SVG Export Plug-In . SVG Version: 6.00 Build 0)  -->
<svg version="1.1" id="Layer_1" xmlns="http://www.w3.org/2000/svg" xmlns:xlink="http://www.w3.org/1999/xlink" x="0px" y="0px"
	 viewBox="0 0 1000 366" style="enable-background:new 0 0 1000 366;" xml:space="preserve">
<style type="text/css">
	.st0{fill:#C68D66;}
	.st1{fill:#C69471;}
	.st2{fill:#E3A87D;}
</style>
<path class="st0" d="M836.35,127L985,247.62c0,0-70.92-0.88-90.09,0c4.83,21.88,1.14,48.62,11.83,101.88
	c-32.28-53.31-177-115-177-115l5.01-107.5H836.35z"/>
<polygon class="st1" points="838,210 831,201 791,191 730.69,195 730,235 "/>
<path class="st0" d="M163.39,127L14.74,247.62c0,0,70.92-0.88,90.09,0C100,269.5,103.69,296.25,93,349.5
	c32.28-53.31,177-115,177-115L264.99,127H163.39z"/>
<polygon class="st1" points="161,208 269.04,196 270,234 "/>
<path class="st2" d="M838,209.53c-96.97-31.73-573.33-16.09-677,0V50c137.19-38.88,561.26-37.54,677,0V209.53z"/>
</svg>
